<?xml version="1.0"?>
<svg xmlns="http://www.w3.org/2000/svg" xmlns:xlink="http://www.w3.org/1999/xlink" version="1.1" id="Capa_1" x="0px" y="0px" viewBox="0 0 306.573 306.573" style="enable-background:new 0 0 306.573 306.573;" xml:space="preserve" width="512px" height="512px"><g><g>
	<path d="M305.917,150.268c-0.657-1.152-1.745-1.996-3.024-2.345l-4.124-1.128c-9.656-2.642-19.4-4.929-29.208-6.881l3.648-13.334   c0.729-2.664-0.84-5.414-3.503-6.142l-4.125-1.128c-36.56-10.002-74.342-15.073-112.295-15.073   c-37.953,0-75.733,5.071-112.293,15.073l-4.125,1.128c-2.664,0.729-4.232,3.479-3.503,6.142l3.648,13.334   c-9.807,1.951-19.551,4.239-29.207,6.881l-4.124,1.128c-1.279,0.35-2.367,1.193-3.024,2.345c-0.657,1.152-0.83,2.518-0.479,3.797   l12.199,44.592c0.35,1.279,1.193,2.367,2.346,3.024c0.761,0.434,1.616,0.657,2.477,0.657c0.442,0,0.886-0.059,1.319-0.177   l4.125-1.128c31.729-8.68,64.519-13.081,97.457-13.081h0.854c1.342,0,2.628-0.54,3.568-1.497c0.94-0.958,1.456-2.253,1.431-3.595   l-0.395-21.339c9.218-0.693,18.467-1.054,27.729-1.054c9.262,0,18.511,0.361,27.729,1.054l-0.395,21.339   c-0.025,1.342,0.491,2.637,1.431,3.595c0.94,0.958,2.226,1.497,3.568,1.497h0.854c32.938,0,65.727,4.401,97.457,13.081l4.125,1.128   c0.434,0.119,0.877,0.177,1.319,0.177c0.861,0,1.716-0.223,2.477-0.657c1.152-0.657,1.996-1.745,2.346-3.024l12.199-44.592   C306.746,152.785,306.573,151.419,305.917,150.268z M53.89,163.711l-9.56-34.946c35.482-9.64,72.138-14.528,108.958-14.528   c36.819,0,73.474,4.888,108.956,14.528l-9.56,34.946c-32.371-8.79-65.809-13.246-99.397-13.246S86.26,154.921,53.89,163.711z    M20.702,191.195l-9.56-34.946c9.428-2.562,18.941-4.775,28.516-6.663l5.905,21.585c0.593,2.168,2.53,3.588,4.664,3.656   c0.247,0.088,0.495,0.173,0.761,0.222l27.804,5.161C59.184,182.356,39.759,186.021,20.702,191.195z M115.841,176.916l-42.041-7.803   c13.784-3.036,27.732-5.274,41.772-6.713L115.841,176.916z M232.773,169.113l-42.041,7.803l0.269-14.516   C205.04,163.839,218.989,166.076,232.773,169.113z M285.871,191.195c-19.057-5.174-38.482-8.84-58.09-10.985l27.804-5.161   c0.243-0.045,0.469-0.126,0.697-0.203c2.161-0.041,4.129-1.484,4.728-3.675l5.905-21.585c9.574,1.888,19.087,4.101,28.516,6.663   L285.871,191.195z" data-original="#000000" class="active-path" data-old_color="#000000" fill="#DCD15D"/>
</g></g> </svg>
